<svg xmlns="http://www.w3.org/2000/svg" xmlns:xlink="http://www.w3.org/1999/xlink" width="321" zoomAndPan="magnify" viewBox="0 0 240.75 141.750002" height="188" preserveAspectRatio="xMidYMid meet" version="1.0"><defs><g/></defs><g fill="#123566" fill-opacity="1"><g transform="translate(34.07847, 107.592491)"><g><path d="M 1.5625 0 L 1.109375 0 C 1.003906 0 0.910156 -0.0351562 0.828125 -0.109375 C 0.753906 -0.191406 0.71875 -0.285156 0.71875 -0.390625 L 0.71875 -7.875 C 0.71875 -7.976562 0.753906 -8.066406 0.828125 -8.140625 C 0.910156 -8.222656 1.003906 -8.265625 1.109375 -8.265625 L 1.5625 -8.265625 C 1.6875 -8.265625 1.785156 -8.222656 1.859375 -8.140625 C 1.929688 -8.066406 1.96875 -7.976562 1.96875 -7.875 L 1.96875 -0.390625 C 1.96875 -0.285156 1.925781 -0.191406 1.84375 -0.109375 C 1.769531 -0.0351562 1.675781 0 1.5625 0 Z M 1.5625 0 "/></g></g></g><g fill="#123566" fill-opacity="1"><g transform="translate(46.357583, 107.592491)"><g><path d="M 4.296875 -1.515625 L 2.84375 -6.25 C 2.707031 -6.664062 2.613281 -6.921875 2.5625 -7.015625 C 2.507812 -7.117188 2.445312 -7.175781 2.375 -7.1875 C 2.3125 -7.207031 2.265625 -7.21875 2.234375 -7.21875 C 2.085938 -7.21875 1.988281 -7.160156 1.9375 -7.046875 C 1.894531 -6.929688 1.875 -6.707031 1.875 -6.375 L 1.96875 -0.390625 C 1.96875 -0.285156 1.925781 -0.191406 1.84375 -0.109375 C 1.769531 -0.0351562 1.679688 0 1.578125 0 L 1.109375 0 C 1.003906 0 0.910156 -0.0351562 0.828125 -0.109375 C 0.753906 -0.191406 0.71875 -0.285156 0.71875 -0.390625 L 0.71875 -6.765625 C 0.71875 -7.335938 0.828125 -7.738281 1.046875 -7.96875 C 1.265625 -8.207031 1.632812 -8.328125 2.15625 -8.328125 C 2.425781 -8.328125 2.671875 -8.296875 2.890625 -8.234375 C 3.109375 -8.171875 3.289062 -8.03125 3.4375 -7.8125 C 3.59375 -7.59375 3.75 -7.238281 3.90625 -6.75 L 5.359375 -2.015625 C 5.484375 -1.617188 5.566406 -1.375 5.609375 -1.28125 C 5.648438 -1.195312 5.695312 -1.132812 5.75 -1.09375 C 5.8125 -1.0625 5.878906 -1.046875 5.953125 -1.046875 C 6.066406 -1.046875 6.15625 -1.082031 6.21875 -1.15625 C 6.289062 -1.226562 6.320312 -1.46875 6.3125 -1.875 L 6.25 -7.875 C 6.238281 -7.988281 6.269531 -8.082031 6.34375 -8.15625 C 6.425781 -8.226562 6.519531 -8.265625 6.625 -8.265625 L 7.109375 -8.265625 C 7.210938 -8.265625 7.300781 -8.222656 7.375 -8.140625 C 7.445312 -8.066406 7.484375 -7.976562 7.484375 -7.875 L 7.484375 -1.5 C 7.484375 -0.925781 7.375 -0.519531 7.15625 -0.28125 C 6.9375 -0.0507812 6.566406 0.0625 6.046875 0.0625 C 5.660156 0.0625 5.375 0.015625 5.1875 -0.078125 C 5.007812 -0.171875 4.851562 -0.3125 4.71875 -0.5 C 4.59375 -0.6875 4.453125 -1.023438 4.296875 -1.515625 Z M 4.296875 -1.515625 "/></g></g></g><g fill="#123566" fill-opacity="1"><g transform="translate(64.164696, 107.592491)"><g><path d="M 1.046875 0 C 0.941406 0 0.847656 -0.0351562 0.765625 -0.109375 C 0.691406 -0.191406 0.65625 -0.285156 0.65625 -0.390625 L 0.65625 -5.015625 C 0.65625 -5.847656 0.726562 -6.492188 0.875 -6.953125 C 1.03125 -7.410156 1.285156 -7.742188 1.640625 -7.953125 C 2.003906 -8.160156 2.5625 -8.265625 3.3125 -8.265625 L 6.1875 -8.265625 C 6.300781 -8.265625 6.394531 -8.222656 6.46875 -8.140625 C 6.539062 -8.066406 6.578125 -7.976562 6.578125 -7.875 L 6.578125 -7.546875 C 6.578125 -7.429688 6.539062 -7.335938 6.46875 -7.265625 C 6.394531 -7.191406 6.300781 -7.15625 6.1875 -7.15625 L 3.59375 -7.15625 C 3.132812 -7.15625 2.789062 -7.101562 2.5625 -7 C 2.332031 -6.90625 2.164062 -6.71875 2.0625 -6.4375 C 1.957031 -6.164062 1.90625 -5.6875 1.90625 -5 L 1.90625 -4.609375 C 1.90625 -4.453125 1.984375 -4.375 2.140625 -4.375 L 5.578125 -4.375 C 5.691406 -4.375 5.785156 -4.332031 5.859375 -4.25 C 5.941406 -4.175781 5.984375 -4.085938 5.984375 -3.984375 L 5.984375 -3.671875 C 5.984375 -3.554688 5.941406 -3.457031 5.859375 -3.375 C 5.785156 -3.300781 5.691406 -3.265625 5.578125 -3.265625 L 2.140625 -3.265625 C 1.984375 -3.265625 1.90625 -3.191406 1.90625 -3.046875 L 1.90625 -0.390625 C 1.90625 -0.285156 1.863281 -0.191406 1.78125 -0.109375 C 1.707031 -0.0351562 1.617188 0 1.515625 0 Z M 1.046875 0 "/></g></g></g><g fill="#123566" fill-opacity="1"><g transform="translate(80.604796, 107.592491)"><g><path d="M 3.625 -8.328125 C 3.039062 -8.328125 2.554688 -8.269531 2.171875 -8.15625 C 1.796875 -8.050781 1.484375 -7.863281 1.234375 -7.59375 C 0.992188 -7.320312 0.816406 -6.945312 0.703125 -6.46875 C 0.597656 -6 0.546875 -5.394531 0.546875 -4.65625 L 0.546875 -3.671875 C 0.546875 -2.921875 0.597656 -2.300781 0.703125 -1.8125 C 0.816406 -1.332031 0.992188 -0.957031 1.234375 -0.6875 C 1.484375 -0.414062 1.796875 -0.222656 2.171875 -0.109375 C 2.554688 0.00390625 3.039062 0.0625 3.625 0.0625 L 4.671875 0.0625 C 5.398438 0.0625 5.976562 -0.0234375 6.40625 -0.203125 C 6.84375 -0.390625 7.179688 -0.734375 7.421875 -1.234375 C 7.660156 -1.742188 7.78125 -2.554688 7.78125 -3.671875 L 7.78125 -4.65625 C 7.78125 -5.582031 7.6875 -6.300781 7.5 -6.8125 C 7.320312 -7.332031 7.023438 -7.710938 6.609375 -7.953125 C 6.191406 -8.203125 5.546875 -8.328125 4.671875 -8.328125 Z M 6.515625 -4.625 L 6.515625 -3.71875 C 6.515625 -3.007812 6.46875 -2.46875 6.375 -2.09375 C 6.289062 -1.726562 6.128906 -1.460938 5.890625 -1.296875 C 5.648438 -1.128906 5.238281 -1.046875 4.65625 -1.046875 L 3.640625 -1.046875 C 3.054688 -1.046875 2.644531 -1.128906 2.40625 -1.296875 C 2.164062 -1.460938 2 -1.726562 1.90625 -2.09375 C 1.820312 -2.46875 1.78125 -3.007812 1.78125 -3.71875 L 1.78125 -4.625 C 1.78125 -5.175781 1.804688 -5.617188 1.859375 -5.953125 C 1.910156 -6.285156 2.003906 -6.539062 2.140625 -6.71875 C 2.273438 -6.90625 2.460938 -7.035156 2.703125 -7.109375 C 2.941406 -7.179688 3.253906 -7.21875 3.640625 -7.21875 L 4.65625 -7.21875 C 5.238281 -7.21875 5.648438 -7.132812 5.890625 -6.96875 C 6.140625 -6.800781 6.304688 -6.539062 6.390625 -6.1875 C 6.472656 -5.832031 6.515625 -5.3125 6.515625 -4.625 Z M 6.515625 -4.625 "/></g></g></g><g fill="#123566" fill-opacity="1"><g transform="translate(98.519829, 107.592491)"><g><path d="M 1.5625 0 L 1.109375 0 C 1.003906 0 0.910156 -0.0351562 0.828125 -0.109375 C 0.753906 -0.191406 0.71875 -0.285156 0.71875 -0.390625 L 0.71875 -7.875 C 0.71875 -7.976562 0.753906 -8.066406 0.828125 -8.140625 C 0.910156 -8.222656 1.003906 -8.265625 1.109375 -8.265625 L 3.953125 -8.265625 C 4.578125 -8.265625 5.101562 -8.222656 5.53125 -8.140625 C 5.957031 -8.066406 6.304688 -7.9375 6.578125 -7.75 C 6.847656 -7.5625 7.046875 -7.296875 7.171875 -6.953125 C 7.304688 -6.617188 7.375 -6.203125 7.375 -5.703125 L 7.375 -5.5625 C 7.375 -5.007812 7.253906 -4.546875 7.015625 -4.171875 C 6.785156 -3.796875 6.375 -3.507812 5.78125 -3.3125 C 5.613281 -3.257812 5.582031 -3.15625 5.6875 -3 L 7.34375 -0.546875 C 7.4375 -0.398438 7.453125 -0.269531 7.390625 -0.15625 C 7.335938 -0.0507812 7.234375 0 7.078125 0 L 6.625 0 C 6.488281 0 6.367188 -0.0195312 6.265625 -0.0625 C 6.171875 -0.113281 6.0625 -0.242188 5.9375 -0.453125 L 4.375 -2.828125 C 4.320312 -2.910156 4.257812 -2.972656 4.1875 -3.015625 C 4.113281 -3.054688 4.015625 -3.078125 3.890625 -3.078125 L 2.1875 -3.078125 C 2.101562 -3.078125 2.039062 -3.054688 2 -3.015625 C 1.96875 -2.984375 1.953125 -2.929688 1.953125 -2.859375 L 1.953125 -0.390625 C 1.953125 -0.285156 1.910156 -0.191406 1.828125 -0.109375 C 1.753906 -0.0351562 1.664062 0 1.5625 0 Z M 2.1875 -7.15625 C 2.15625 -7.15625 2.109375 -7.144531 2.046875 -7.125 C 1.984375 -7.113281 1.953125 -7.046875 1.953125 -6.921875 L 1.953125 -4.359375 C 1.953125 -4.328125 1.957031 -4.28125 1.96875 -4.21875 C 1.988281 -4.164062 2.0625 -4.140625 2.1875 -4.140625 L 3.921875 -4.140625 C 4.472656 -4.140625 4.898438 -4.175781 5.203125 -4.25 C 5.515625 -4.332031 5.742188 -4.472656 5.890625 -4.671875 C 6.035156 -4.867188 6.109375 -5.179688 6.109375 -5.609375 L 6.109375 -5.65625 C 6.109375 -6.050781 6.054688 -6.347656 5.953125 -6.546875 C 5.859375 -6.753906 5.671875 -6.90625 5.390625 -7 C 5.109375 -7.101562 4.617188 -7.15625 3.921875 -7.15625 Z M 2.1875 -7.15625 "/></g></g></g><g fill="#123566" fill-opacity="1"><g transform="translate(116.027167, 107.592491)"><g><path d="M 1.5625 0 L 1.09375 0 C 0.976562 0 0.882812 -0.0351562 0.8125 -0.109375 C 0.75 -0.179688 0.71875 -0.285156 0.71875 -0.421875 L 0.71875 -6.578125 C 0.71875 -7.242188 0.835938 -7.703125 1.078125 -7.953125 C 1.328125 -8.203125 1.765625 -8.328125 2.390625 -8.328125 C 2.796875 -8.328125 3.117188 -8.285156 3.359375 -8.203125 C 3.597656 -8.128906 3.796875 -7.972656 3.953125 -7.734375 C 4.109375 -7.503906 4.234375 -7.128906 4.328125 -6.609375 L 4.953125 -2.953125 C 5.003906 -2.671875 5.0625 -2.476562 5.125 -2.375 C 5.1875 -2.269531 5.28125 -2.21875 5.40625 -2.21875 L 5.53125 -2.21875 C 5.613281 -2.21875 5.691406 -2.253906 5.765625 -2.328125 C 5.835938 -2.398438 5.910156 -2.609375 5.984375 -2.953125 L 6.609375 -6.609375 C 6.660156 -6.953125 6.738281 -7.25 6.84375 -7.5 C 6.957031 -7.757812 7.125 -7.960938 7.34375 -8.109375 C 7.570312 -8.253906 7.96875 -8.328125 8.53125 -8.328125 C 9.164062 -8.328125 9.601562 -8.203125 9.84375 -7.953125 C 10.082031 -7.703125 10.203125 -7.242188 10.203125 -6.578125 L 10.203125 -0.421875 C 10.203125 -0.328125 10.175781 -0.234375 10.125 -0.140625 C 10.082031 -0.046875 9.988281 0 9.84375 0 L 9.359375 0 C 9.242188 0 9.148438 -0.03125 9.078125 -0.09375 C 9.003906 -0.164062 8.96875 -0.265625 8.96875 -0.390625 L 8.984375 -6.234375 C 8.984375 -6.554688 8.957031 -6.800781 8.90625 -6.96875 C 8.863281 -7.132812 8.707031 -7.21875 8.4375 -7.21875 C 8.28125 -7.21875 8.148438 -7.171875 8.046875 -7.078125 C 7.953125 -6.992188 7.859375 -6.710938 7.765625 -6.234375 L 7.109375 -2.546875 C 7.015625 -2.046875 6.859375 -1.679688 6.640625 -1.453125 C 6.421875 -1.222656 6.050781 -1.109375 5.53125 -1.109375 L 5.390625 -1.109375 C 4.941406 -1.109375 4.59375 -1.203125 4.34375 -1.390625 C 4.101562 -1.585938 3.929688 -1.972656 3.828125 -2.546875 L 3.15625 -6.234375 C 3.082031 -6.628906 3.003906 -6.890625 2.921875 -7.015625 C 2.835938 -7.148438 2.695312 -7.21875 2.5 -7.21875 C 2.21875 -7.21875 2.050781 -7.132812 2 -6.96875 C 1.957031 -6.800781 1.9375 -6.554688 1.9375 -6.234375 L 1.96875 -0.390625 C 1.96875 -0.265625 1.925781 -0.164062 1.84375 -0.09375 C 1.769531 -0.03125 1.675781 0 1.5625 0 Z M 1.5625 0 "/></g></g></g><g fill="#123566" fill-opacity="1"><g transform="translate(136.556314, 107.592491)"><g><path d="M 0.3125 -0.53125 L 1.828125 -6.90625 C 1.941406 -7.40625 2.128906 -7.765625 2.390625 -7.984375 C 2.660156 -8.210938 3.039062 -8.328125 3.53125 -8.328125 L 4.46875 -8.328125 C 4.96875 -8.328125 5.347656 -8.210938 5.609375 -7.984375 C 5.867188 -7.765625 6.0625 -7.40625 6.1875 -6.90625 L 7.6875 -0.53125 C 7.78125 -0.175781 7.671875 0 7.359375 0 L 6.96875 0 C 6.84375 0 6.738281 -0.0195312 6.65625 -0.0625 C 6.570312 -0.113281 6.503906 -0.25 6.453125 -0.46875 L 6.046875 -2.1875 C 6.015625 -2.332031 5.929688 -2.40625 5.796875 -2.40625 L 2.203125 -2.40625 C 2.066406 -2.40625 1.984375 -2.332031 1.953125 -2.1875 L 1.5625 -0.46875 C 1.519531 -0.289062 1.460938 -0.164062 1.390625 -0.09375 C 1.316406 -0.03125 1.203125 0 1.046875 0 L 0.640625 0 C 0.335938 0 0.226562 -0.175781 0.3125 -0.53125 Z M 5.53125 -3.53125 C 5.695312 -3.53125 5.753906 -3.613281 5.703125 -3.78125 L 5.125 -6.390625 C 5.050781 -6.710938 4.953125 -6.929688 4.828125 -7.046875 C 4.710938 -7.160156 4.515625 -7.21875 4.234375 -7.21875 L 3.78125 -7.21875 C 3.5 -7.21875 3.296875 -7.160156 3.171875 -7.046875 C 3.054688 -6.929688 2.957031 -6.710938 2.875 -6.390625 L 2.296875 -3.78125 C 2.253906 -3.613281 2.316406 -3.53125 2.484375 -3.53125 Z M 5.53125 -3.53125 "/></g></g></g><g fill="#123566" fill-opacity="1"><g transform="translate(154.159575, 107.592491)"><g><path d="M 3.3125 0 C 3.195312 0 3.097656 -0.0351562 3.015625 -0.109375 C 2.941406 -0.191406 2.90625 -0.285156 2.90625 -0.390625 L 2.90625 -6.921875 C 2.90625 -7.078125 2.832031 -7.15625 2.6875 -7.15625 L 0.4375 -7.15625 C 0.332031 -7.15625 0.242188 -7.191406 0.171875 -7.265625 C 0.0976562 -7.335938 0.0625 -7.425781 0.0625 -7.53125 L 0.0625 -7.875 C 0.0625 -7.976562 0.0976562 -8.066406 0.171875 -8.140625 C 0.242188 -8.222656 0.332031 -8.265625 0.4375 -8.265625 L 6.625 -8.265625 C 6.75 -8.265625 6.84375 -8.222656 6.90625 -8.140625 C 6.976562 -8.066406 7.015625 -7.976562 7.015625 -7.875 L 7.015625 -7.53125 C 7.015625 -7.425781 6.976562 -7.335938 6.90625 -7.265625 C 6.832031 -7.191406 6.738281 -7.15625 6.625 -7.15625 L 4.390625 -7.15625 C 4.234375 -7.15625 4.15625 -7.078125 4.15625 -6.921875 L 4.15625 -0.390625 C 4.15625 -0.285156 4.117188 -0.191406 4.046875 -0.109375 C 3.972656 -0.0351562 3.882812 0 3.78125 0 Z M 3.3125 0 "/></g></g></g><g fill="#123566" fill-opacity="1"><g transform="translate(170.83951, 107.592491)"><g><path d="M 1.5625 0 L 1.109375 0 C 1.003906 0 0.910156 -0.0351562 0.828125 -0.109375 C 0.753906 -0.191406 0.71875 -0.285156 0.71875 -0.390625 L 0.71875 -7.875 C 0.71875 -7.976562 0.753906 -8.066406 0.828125 -8.140625 C 0.910156 -8.222656 1.003906 -8.265625 1.109375 -8.265625 L 1.5625 -8.265625 C 1.6875 -8.265625 1.785156 -8.222656 1.859375 -8.140625 C 1.929688 -8.066406 1.96875 -7.976562 1.96875 -7.875 L 1.96875 -0.390625 C 1.96875 -0.285156 1.925781 -0.191406 1.84375 -0.109375 C 1.769531 -0.0351562 1.675781 0 1.5625 0 Z M 1.5625 0 "/></g></g></g><g fill="#123566" fill-opacity="1"><g transform="translate(183.118626, 107.592491)"><g><path d="M 3.828125 0.0625 C 3.222656 0.0625 2.710938 0.0078125 2.296875 -0.09375 C 1.890625 -0.207031 1.554688 -0.398438 1.296875 -0.671875 C 1.035156 -0.953125 0.84375 -1.335938 0.71875 -1.828125 C 0.601562 -2.316406 0.546875 -2.941406 0.546875 -3.703125 L 0.546875 -4.5625 C 0.546875 -5.507812 0.640625 -6.25 0.828125 -6.78125 C 1.015625 -7.320312 1.328125 -7.710938 1.765625 -7.953125 C 2.210938 -8.203125 2.898438 -8.328125 3.828125 -8.328125 L 4.125 -8.328125 C 4.8125 -8.328125 5.445312 -8.25 6.03125 -8.09375 C 6.1875 -8.050781 6.300781 -7.988281 6.375 -7.90625 C 6.445312 -7.832031 6.484375 -7.71875 6.484375 -7.5625 L 6.484375 -7.203125 C 6.484375 -7.097656 6.453125 -7.015625 6.390625 -6.953125 C 6.328125 -6.890625 6.242188 -6.859375 6.140625 -6.859375 C 6.054688 -6.859375 5.890625 -6.898438 5.640625 -6.984375 C 5.390625 -7.066406 5.144531 -7.125 4.90625 -7.15625 C 4.664062 -7.195312 4.398438 -7.21875 4.109375 -7.21875 L 3.859375 -7.21875 C 3.328125 -7.21875 2.914062 -7.15625 2.625 -7.03125 C 2.332031 -6.90625 2.117188 -6.671875 1.984375 -6.328125 C 1.847656 -5.984375 1.78125 -5.398438 1.78125 -4.578125 L 1.78125 -3.6875 C 1.78125 -2.863281 1.847656 -2.28125 1.984375 -1.9375 C 2.117188 -1.59375 2.332031 -1.359375 2.625 -1.234375 C 2.914062 -1.109375 3.328125 -1.046875 3.859375 -1.046875 L 4.140625 -1.046875 C 4.359375 -1.046875 4.59375 -1.054688 4.84375 -1.078125 C 5.101562 -1.109375 5.367188 -1.171875 5.640625 -1.265625 C 5.921875 -1.359375 6.101562 -1.40625 6.1875 -1.40625 C 6.289062 -1.40625 6.375 -1.375 6.4375 -1.3125 C 6.5 -1.25 6.53125 -1.164062 6.53125 -1.0625 L 6.53125 -0.6875 C 6.53125 -0.570312 6.5 -0.472656 6.4375 -0.390625 C 6.382812 -0.304688 6.265625 -0.234375 6.078125 -0.171875 C 5.535156 -0.015625 4.890625 0.0625 4.140625 0.0625 Z M 3.828125 0.0625 "/></g></g></g><g fill="#123566" fill-opacity="1"><g transform="translate(199.654664, 107.592491)"><g><path d="M 1.046875 -0.1875 C 0.898438 -0.226562 0.789062 -0.285156 0.71875 -0.359375 C 0.65625 -0.441406 0.625 -0.5625 0.625 -0.71875 L 0.625 -1.03125 C 0.625 -1.132812 0.65625 -1.222656 0.71875 -1.296875 C 0.789062 -1.367188 0.878906 -1.40625 0.984375 -1.40625 C 1.066406 -1.40625 1.242188 -1.363281 1.515625 -1.28125 C 1.796875 -1.195312 2.066406 -1.132812 2.328125 -1.09375 C 2.585938 -1.0625 2.867188 -1.046875 3.171875 -1.046875 L 3.453125 -1.046875 C 4.097656 -1.046875 4.582031 -1.140625 4.90625 -1.328125 C 5.238281 -1.523438 5.40625 -1.863281 5.40625 -2.34375 L 5.40625 -2.390625 C 5.40625 -2.628906 5.363281 -2.816406 5.28125 -2.953125 C 5.195312 -3.097656 5.015625 -3.226562 4.734375 -3.34375 C 4.460938 -3.46875 3.957031 -3.613281 3.21875 -3.78125 C 2.394531 -3.976562 1.8125 -4.164062 1.46875 -4.34375 C 1.125 -4.519531 0.882812 -4.734375 0.75 -4.984375 C 0.613281 -5.234375 0.546875 -5.566406 0.546875 -5.984375 L 0.546875 -6.015625 C 0.546875 -6.617188 0.648438 -7.082031 0.859375 -7.40625 C 1.066406 -7.726562 1.378906 -7.960938 1.796875 -8.109375 C 2.222656 -8.253906 2.796875 -8.328125 3.515625 -8.328125 L 3.90625 -8.328125 C 4.726562 -8.328125 5.429688 -8.242188 6.015625 -8.078125 C 6.160156 -8.035156 6.265625 -7.976562 6.328125 -7.90625 C 6.398438 -7.832031 6.4375 -7.722656 6.4375 -7.578125 L 6.4375 -7.21875 C 6.4375 -7.125 6.398438 -7.039062 6.328125 -6.96875 C 6.265625 -6.894531 6.179688 -6.859375 6.078125 -6.859375 C 5.984375 -6.859375 5.796875 -6.898438 5.515625 -6.984375 C 5.242188 -7.066406 4.976562 -7.125 4.71875 -7.15625 C 4.46875 -7.195312 4.191406 -7.21875 3.890625 -7.21875 L 3.59375 -7.21875 C 3 -7.21875 2.550781 -7.140625 2.25 -6.984375 C 1.957031 -6.835938 1.8125 -6.539062 1.8125 -6.09375 L 1.8125 -6.015625 C 1.8125 -5.671875 1.957031 -5.425781 2.25 -5.28125 C 2.550781 -5.144531 3.078125 -5 3.828125 -4.84375 C 4.554688 -4.675781 5.113281 -4.503906 5.5 -4.328125 C 5.894531 -4.160156 6.1875 -3.941406 6.375 -3.671875 C 6.5625 -3.398438 6.65625 -3 6.65625 -2.46875 L 6.65625 -2.421875 C 6.65625 -1.785156 6.539062 -1.296875 6.3125 -0.953125 C 6.09375 -0.609375 5.757812 -0.351562 5.3125 -0.1875 C 4.875 -0.0195312 4.296875 0.0625 3.578125 0.0625 L 3.109375 0.0625 C 2.253906 0.0625 1.566406 -0.0195312 1.046875 -0.1875 Z M 1.046875 -0.1875 "/></g></g></g><g fill="#123566" fill-opacity="1"><g transform="translate(30.950539, 82.432166)"><g><path d="M 6.453125 0 L 4.390625 0 C 3.910156 0 3.492188 -0.175781 3.140625 -0.53125 C 2.785156 -0.882812 2.609375 -1.300781 2.609375 -1.78125 L 2.609375 -22.875 C 2.609375 -24.4375 2.8125 -25.695312 3.21875 -26.65625 C 3.632812 -27.625 4.878906 -28.347656 6.953125 -28.828125 C 8.515625 -29.203125 10.257812 -29.390625 12.1875 -29.390625 L 12.515625 -29.390625 C 15.078125 -29.390625 17.140625 -29.203125 18.703125 -28.828125 C 19.179688 -28.710938 19.613281 -28.523438 20 -28.265625 C 20.394531 -28.015625 20.59375 -27.476562 20.59375 -26.65625 L 20.59375 -25.328125 C 20.59375 -24.140625 20.019531 -23.546875 18.875 -23.546875 C 18.6875 -23.546875 17.988281 -23.675781 16.78125 -23.9375 C 15.570312 -24.195312 14.335938 -24.328125 13.078125 -24.328125 L 12.90625 -24.328125 C 12.019531 -24.328125 11.019531 -24.234375 9.90625 -24.046875 C 9.425781 -23.929688 9.035156 -23.722656 8.734375 -23.421875 C 8.441406 -23.128906 8.296875 -22.519531 8.296875 -21.59375 L 8.296875 -1.78125 C 8.296875 -1.300781 8.109375 -0.882812 7.734375 -0.53125 C 7.359375 -0.175781 6.929688 0 6.453125 0 Z M 6.453125 0 "/></g></g></g><g fill="#123566" fill-opacity="1"><g transform="translate(52.708577, 82.432166)"><g><path d="M 15.03125 0.28125 C 11.988281 0.28125 9.554688 -0.0859375 7.734375 -0.828125 C 5.921875 -1.578125 4.519531 -2.925781 3.53125 -4.875 C 2.550781 -6.820312 2.0625 -9.851562 2.0625 -13.96875 L 2.0625 -15.078125 C 2.0625 -17.117188 2.191406 -18.914062 2.453125 -20.46875 C 2.710938 -22.03125 3.117188 -23.359375 3.671875 -24.453125 C 4.234375 -25.554688 4.945312 -26.445312 5.8125 -27.125 C 6.6875 -27.8125 7.828125 -28.359375 9.234375 -28.765625 C 10.648438 -29.179688 12.523438 -29.390625 14.859375 -29.390625 L 15.46875 -29.390625 C 18.957031 -29.390625 21.570312 -28.976562 23.3125 -28.15625 C 25.0625 -27.34375 26.316406 -26.117188 27.078125 -24.484375 C 27.835938 -22.859375 28.21875 -20.691406 28.21875 -17.984375 L 28.21875 -16.359375 C 28.21875 -14.910156 27.863281 -13.863281 27.15625 -13.21875 C 26.457031 -12.570312 25.421875 -12.25 24.046875 -12.25 L 8.734375 -12.25 C 8.066406 -12.25 7.734375 -11.914062 7.734375 -11.25 C 7.734375 -9.71875 7.914062 -8.488281 8.28125 -7.5625 C 8.65625 -6.632812 9.34375 -5.910156 10.34375 -5.390625 C 11.351562 -4.878906 12.929688 -4.625 15.078125 -4.625 L 15.75 -4.625 C 16.863281 -4.625 18.019531 -4.707031 19.21875 -4.875 C 20.425781 -5.039062 21.707031 -5.289062 23.0625 -5.625 C 24.414062 -5.957031 25.222656 -6.125 25.484375 -6.125 C 26.566406 -6.125 27.109375 -5.566406 27.109375 -4.453125 L 27.109375 -3.109375 C 27.109375 -2.597656 26.984375 -2.15625 26.734375 -1.78125 C 26.492188 -1.40625 25.929688 -1.085938 25.046875 -0.828125 C 22.003906 -0.0859375 18.925781 0.28125 15.8125 0.28125 Z M 7.734375 -17.421875 C 7.734375 -16.785156 8.066406 -16.46875 8.734375 -16.46875 L 21.65625 -16.46875 C 22.320312 -16.46875 22.65625 -16.785156 22.65625 -17.421875 C 22.65625 -19.273438 22.488281 -20.691406 22.15625 -21.671875 C 21.820312 -22.660156 21.195312 -23.375 20.28125 -23.8125 C 19.375 -24.257812 17.789062 -24.484375 15.53125 -24.484375 L 14.6875 -24.484375 C 13.019531 -24.484375 11.691406 -24.296875 10.703125 -23.921875 C 9.722656 -23.554688 8.984375 -22.898438 8.484375 -21.953125 C 7.984375 -21.003906 7.734375 -19.492188 7.734375 -17.421875 Z M 7.734375 -17.421875 "/></g></g></g><g fill="#123566" fill-opacity="1"><g transform="translate(83.036288, 82.432166)"><g><path d="M 15.359375 9.1875 C 12.128906 9.1875 9.066406 8.8125 6.171875 8.0625 C 5.398438 7.84375 4.84375 7.554688 4.5 7.203125 C 4.164062 6.847656 4 6.335938 4 5.671875 L 4 4.34375 C 4 3.863281 4.144531 3.460938 4.4375 3.140625 C 4.738281 2.828125 5.132812 2.671875 5.625 2.671875 C 5.957031 2.671875 6.78125 2.851562 8.09375 3.21875 C 9.414062 3.59375 10.675781 3.863281 11.875 4.03125 C 13.082031 4.195312 14.265625 4.28125 15.421875 4.28125 L 15.75 4.28125 C 18.457031 4.28125 20.335938 3.9375 21.390625 3.25 C 22.453125 2.5625 23.054688 1.21875 23.203125 -0.78125 C 23.203125 -1.632812 22.757812 -2.003906 21.875 -1.890625 C 19.457031 -1.554688 17.453125 -1.390625 15.859375 -1.390625 L 14.921875 -1.390625 C 11.390625 -1.390625 8.742188 -1.84375 6.984375 -2.75 C 5.222656 -3.664062 3.960938 -5.054688 3.203125 -6.921875 C 2.441406 -8.796875 2.0625 -11.347656 2.0625 -14.578125 L 2.0625 -15.53125 C 2.0625 -18.945312 2.441406 -21.632812 3.203125 -23.59375 C 3.960938 -25.5625 5.222656 -27.019531 6.984375 -27.96875 C 8.742188 -28.914062 11.390625 -29.390625 14.921875 -29.390625 L 16.53125 -29.390625 C 19.457031 -29.390625 21.789062 -29.175781 23.53125 -28.75 C 25.28125 -28.320312 26.597656 -27.632812 27.484375 -26.6875 C 28.378906 -25.738281 28.847656 -24.316406 28.890625 -22.421875 L 28.890625 -2.171875 C 28.890625 0.578125 28.5 2.757812 27.71875 4.375 C 26.9375 5.988281 25.671875 7.191406 23.921875 7.984375 C 22.179688 8.785156 19.609375 9.1875 16.203125 9.1875 Z M 21.765625 -6.953125 C 22.171875 -7.066406 22.507812 -7.269531 22.78125 -7.5625 C 23.0625 -7.863281 23.203125 -8.40625 23.203125 -9.1875 L 23.203125 -20.53125 C 23.203125 -21.3125 23.09375 -21.988281 22.875 -22.5625 C 22.65625 -23.144531 21.988281 -23.582031 20.875 -23.875 C 19.789062 -24.175781 18.191406 -24.328125 16.078125 -24.328125 L 15.1875 -24.328125 C 13.226562 -24.328125 11.726562 -24.113281 10.6875 -23.6875 C 9.644531 -23.257812 8.890625 -22.457031 8.421875 -21.28125 C 7.960938 -20.113281 7.734375 -18.160156 7.734375 -15.421875 L 7.734375 -14.796875 C 7.734375 -12.609375 7.910156 -10.9375 8.265625 -9.78125 C 8.617188 -8.632812 9.273438 -7.789062 10.234375 -7.25 C 11.203125 -6.71875 12.851562 -6.453125 15.1875 -6.453125 L 16.140625 -6.453125 C 18.773438 -6.453125 20.648438 -6.617188 21.765625 -6.953125 Z M 21.765625 -6.953125 "/></g></g></g><g fill="#123566" fill-opacity="1"><g transform="translate(114.53259, 82.432166)"><g><path d="M 15.03125 0.28125 C 11.988281 0.28125 9.554688 -0.0859375 7.734375 -0.828125 C 5.921875 -1.578125 4.519531 -2.925781 3.53125 -4.875 C 2.550781 -6.820312 2.0625 -9.851562 2.0625 -13.96875 L 2.0625 -15.078125 C 2.0625 -17.117188 2.191406 -18.914062 2.453125 -20.46875 C 2.710938 -22.03125 3.117188 -23.359375 3.671875 -24.453125 C 4.234375 -25.554688 4.945312 -26.445312 5.8125 -27.125 C 6.6875 -27.8125 7.828125 -28.359375 9.234375 -28.765625 C 10.648438 -29.179688 12.523438 -29.390625 14.859375 -29.390625 L 15.46875 -29.390625 C 18.957031 -29.390625 21.570312 -28.976562 23.3125 -28.15625 C 25.0625 -27.34375 26.316406 -26.117188 27.078125 -24.484375 C 27.835938 -22.859375 28.21875 -20.691406 28.21875 -17.984375 L 28.21875 -16.359375 C 28.21875 -14.910156 27.863281 -13.863281 27.15625 -13.21875 C 26.457031 -12.570312 25.421875 -12.25 24.046875 -12.25 L 8.734375 -12.25 C 8.066406 -12.25 7.734375 -11.914062 7.734375 -11.25 C 7.734375 -9.71875 7.914062 -8.488281 8.28125 -7.5625 C 8.65625 -6.632812 9.34375 -5.910156 10.34375 -5.390625 C 11.351562 -4.878906 12.929688 -4.625 15.078125 -4.625 L 15.75 -4.625 C 16.863281 -4.625 18.019531 -4.707031 19.21875 -4.875 C 20.425781 -5.039062 21.707031 -5.289062 23.0625 -5.625 C 24.414062 -5.957031 25.222656 -6.125 25.484375 -6.125 C 26.566406 -6.125 27.109375 -5.566406 27.109375 -4.453125 L 27.109375 -3.109375 C 27.109375 -2.597656 26.984375 -2.15625 26.734375 -1.78125 C 26.492188 -1.40625 25.929688 -1.085938 25.046875 -0.828125 C 22.003906 -0.0859375 18.925781 0.28125 15.8125 0.28125 Z M 7.734375 -17.421875 C 7.734375 -16.785156 8.066406 -16.46875 8.734375 -16.46875 L 21.65625 -16.46875 C 22.320312 -16.46875 22.65625 -16.785156 22.65625 -17.421875 C 22.65625 -19.273438 22.488281 -20.691406 22.15625 -21.671875 C 21.820312 -22.660156 21.195312 -23.375 20.28125 -23.8125 C 19.375 -24.257812 17.789062 -24.484375 15.53125 -24.484375 L 14.6875 -24.484375 C 13.019531 -24.484375 11.691406 -24.296875 10.703125 -23.921875 C 9.722656 -23.554688 8.984375 -22.898438 8.484375 -21.953125 C 7.984375 -21.003906 7.734375 -19.492188 7.734375 -17.421875 Z M 7.734375 -17.421875 "/></g></g></g><g fill="#123566" fill-opacity="1"><g transform="translate(144.860301, 82.432166)"><g><path d="M 28.890625 -6.90625 C 28.890625 -4.9375 28.441406 -3.457031 27.546875 -2.46875 C 26.660156 -1.488281 25.328125 -0.785156 23.546875 -0.359375 C 21.765625 0.0664062 19.367188 0.28125 16.359375 0.28125 L 14.921875 0.28125 C 11.390625 0.28125 8.742188 -0.207031 6.984375 -1.1875 C 5.222656 -2.175781 3.960938 -3.691406 3.203125 -5.734375 C 2.441406 -7.773438 2.0625 -10.539062 2.0625 -14.03125 L 2.0625 -15.078125 C 2.0625 -18.566406 2.441406 -21.332031 3.203125 -23.375 C 3.960938 -25.414062 5.222656 -26.925781 6.984375 -27.90625 C 8.742188 -28.894531 11.390625 -29.390625 14.921875 -29.390625 L 16.078125 -29.390625 C 17.234375 -29.390625 19.238281 -29.257812 22.09375 -29 C 22.832031 -28.882812 23.203125 -29.195312 23.203125 -29.9375 L 23.203125 -37.125 C 23.203125 -37.601562 23.390625 -38.023438 23.765625 -38.390625 C 24.140625 -38.765625 24.566406 -38.953125 25.046875 -38.953125 L 27.109375 -38.953125 C 27.585938 -38.953125 28.003906 -38.765625 28.359375 -38.390625 C 28.710938 -38.023438 28.890625 -37.601562 28.890625 -37.125 Z M 23.203125 -21.875 C 23.203125 -22.164062 23.132812 -22.523438 23 -22.953125 C 22.875 -23.378906 22.40625 -23.6875 21.59375 -23.875 C 19.925781 -24.175781 18.109375 -24.328125 16.140625 -24.328125 L 15.1875 -24.328125 C 13.226562 -24.328125 11.726562 -24.101562 10.6875 -23.65625 C 9.644531 -23.207031 8.890625 -22.367188 8.421875 -21.140625 C 7.960938 -19.921875 7.734375 -17.882812 7.734375 -15.03125 L 7.734375 -14.25 C 7.734375 -11.800781 7.910156 -9.914062 8.265625 -8.59375 C 8.617188 -7.28125 9.273438 -6.316406 10.234375 -5.703125 C 11.203125 -5.085938 12.851562 -4.78125 15.1875 -4.78125 L 16.140625 -4.78125 C 18.328125 -4.78125 19.90625 -4.910156 20.875 -5.171875 C 21.570312 -5.359375 22.132812 -5.632812 22.5625 -6 C 22.988281 -6.375 23.203125 -7.210938 23.203125 -8.515625 Z M 23.203125 -21.875 "/></g></g></g><g fill="#123566" fill-opacity="1"><g transform="translate(176.690483, 82.432166)"><g><path d="M 8.625 -34 C 8.625 -33.445312 8.4375 -33.003906 8.0625 -32.671875 C 7.695312 -32.335938 7.273438 -32.171875 6.796875 -32.171875 L 4.734375 -32.171875 C 4.242188 -32.171875 3.820312 -32.347656 3.46875 -32.703125 C 3.125 -33.054688 2.953125 -33.488281 2.953125 -34 L 2.953125 -37.125 C 2.953125 -37.601562 3.125 -38.023438 3.46875 -38.390625 C 3.820312 -38.765625 4.242188 -38.953125 4.734375 -38.953125 L 6.796875 -38.953125 C 7.273438 -38.953125 7.695312 -38.765625 8.0625 -38.390625 C 8.4375 -38.023438 8.625 -37.601562 8.625 -37.125 Z M 8.625 -1.78125 C 8.625 -1.300781 8.4375 -0.882812 8.0625 -0.53125 C 7.695312 -0.175781 7.273438 0 6.796875 0 L 4.734375 0 C 4.242188 0 3.820312 -0.175781 3.46875 -0.53125 C 3.125 -0.882812 2.953125 -1.300781 2.953125 -1.78125 L 2.953125 -27.265625 C 2.953125 -27.753906 3.125 -28.179688 3.46875 -28.546875 C 3.820312 -28.921875 4.242188 -29.109375 4.734375 -29.109375 L 6.796875 -29.109375 C 7.273438 -29.109375 7.695312 -28.921875 8.0625 -28.546875 C 8.4375 -28.179688 8.625 -27.753906 8.625 -27.265625 Z M 8.625 -1.78125 "/></g></g></g><g fill="#123566" fill-opacity="1"><g transform="translate(187.597325, 82.432166)"><g><path d="M 15.078125 0.28125 L 14.75 0.28125 C 12.039062 0.28125 9.988281 -0.179688 8.59375 -1.109375 C 7.207031 -2.035156 6.207031 -3.445312 5.59375 -5.34375 C 4.976562 -7.238281 4.671875 -9.816406 4.671875 -13.078125 L 4.671875 -23.046875 C 4.671875 -23.710938 4.359375 -24.046875 3.734375 -24.046875 L 2.5 -24.046875 C 2.019531 -24.046875 1.601562 -24.21875 1.25 -24.5625 C 0.894531 -24.914062 0.71875 -25.335938 0.71875 -25.828125 L 0.71875 -27.265625 C 0.71875 -27.753906 0.894531 -28.179688 1.25 -28.546875 C 1.601562 -28.921875 2.019531 -29.109375 2.5 -29.109375 L 3.734375 -29.109375 C 4.359375 -29.109375 4.671875 -29.421875 4.671875 -30.046875 L 4.671875 -33.84375 C 4.671875 -34.320312 4.835938 -34.742188 5.171875 -35.109375 C 5.503906 -35.484375 5.953125 -35.671875 6.515625 -35.671875 L 8.578125 -35.671875 C 9.054688 -35.671875 9.472656 -35.484375 9.828125 -35.109375 C 10.179688 -34.742188 10.359375 -34.320312 10.359375 -33.84375 L 10.359375 -30.046875 C 10.359375 -29.421875 10.691406 -29.109375 11.359375 -29.109375 L 18.8125 -29.109375 C 19.289062 -29.109375 19.707031 -28.921875 20.0625 -28.546875 C 20.414062 -28.179688 20.59375 -27.753906 20.59375 -27.265625 L 20.59375 -25.828125 C 20.59375 -25.335938 20.414062 -24.914062 20.0625 -24.5625 C 19.707031 -24.21875 19.289062 -24.046875 18.8125 -24.046875 L 11.359375 -24.046875 C 10.691406 -24.046875 10.359375 -23.710938 10.359375 -23.046875 L 10.359375 -12.515625 C 10.359375 -9.890625 10.660156 -7.941406 11.265625 -6.671875 C 11.878906 -5.410156 13.113281 -4.78125 14.96875 -4.78125 L 15.1875 -4.78125 C 16.269531 -4.78125 17.28125 -4.910156 18.21875 -5.171875 C 19.164062 -5.429688 19.753906 -5.5625 19.984375 -5.5625 C 20.429688 -5.5625 20.800781 -5.421875 21.09375 -5.140625 C 21.382812 -4.867188 21.53125 -4.4375 21.53125 -3.84375 L 21.53125 -2.453125 C 21.53125 -2.003906 21.410156 -1.566406 21.171875 -1.140625 C 20.929688 -0.710938 20.367188 -0.390625 19.484375 -0.171875 C 17.992188 0.128906 16.523438 0.28125 15.078125 0.28125 Z M 15.078125 0.28125 "/></g></g></g></svg>